<svg aria-hidden="true" style="position: absolute; width: 0; height: 0; overflow: hidden;" version="1.1" xmlns="http://www.w3.org/2000/svg" xmlns:xlink="http://www.w3.org/1999/xlink">
<defs>
<symbol id="icon-star-small" viewBox="0 0 32 32">
<path d="M14.574 1.918c0.548-1.302 2.415-1.302 2.963 0l3.235 7.684c0.231 0.549 0.754 0.924 1.353 0.971l8.396 0.665c1.423 0.113 1.999 1.867 0.916 2.784l-6.397 5.414c-0.457 0.387-0.657 0.994-0.517 1.572l1.954 8.095c0.331 1.371-1.179 2.456-2.397 1.721l-7.189-4.338c-0.513-0.31-1.159-0.31-1.673 0l-7.189 4.338c-1.218 0.735-2.728-0.349-2.397-1.721l1.954-8.095c0.14-0.578-0.060-1.185-0.517-1.572l-6.397-5.414c-1.084-0.917-0.507-2.671 0.916-2.784l8.397-0.665c0.6-0.047 1.122-0.422 1.353-0.971l3.235-7.684z"></path>
</symbol>
<symbol id="icon-Arrow" viewBox="0 0 31 32">
<path d="M15.36 5.76l-1.805 1.805 7.142 7.155h-15.578v2.56h15.578l-7.142 7.155 1.805 1.805 10.24-10.24-10.24-10.24z"></path>
</symbol>
<symbol id="icon-email" viewBox="0 0 32 32">
<path d="M22.667 4.667h-13.333c-4 0-6.667 2-6.667 6.667v9.333c0 4.667 2.667 6.667 6.667 6.667h13.333c4 0 6.667-2 6.667-6.667v-9.333c0-4.667-2.667-6.667-6.667-6.667zM23.293 12.787l-4.173 3.333c-0.88 0.707-2 1.053-3.12 1.053s-2.253-0.347-3.12-1.053l-4.173-3.333c-0.427-0.347-0.493-0.987-0.16-1.413 0.347-0.427 0.973-0.507 1.4-0.16l4.173 3.333c1.013 0.813 2.733 0.813 3.747 0l4.173-3.333c0.427-0.347 1.067-0.28 1.4 0.16 0.347 0.427 0.28 1.067-0.147 1.413z"></path>
</symbol>
<symbol id="icon-airbnb-logo" viewBox="0 0 104 32">
<path d="M54.45 8.040c0 1.153-0.929 2.082-2.083 2.082s-2.082-0.929-2.082-2.082c0-1.153 0.897-2.082 2.082-2.082 1.186 0.032 2.083 0.961 2.083 2.082zM45.865 12.237v0.513c0 0-0.993-1.282-3.107-1.282-3.491 0-6.214 2.659-6.214 6.342 0 3.652 2.691 6.342 6.214 6.342 2.146 0 3.107-1.313 3.107-1.313v0.544c0 0.256 0.193 0.448 0.449 0.448h2.594v-12.044h-2.594c-0.256 0.001-0.449 0.226-0.449 0.45zM45.865 19.956c-0.48 0.705-1.441 1.314-2.594 1.314-2.050 0-3.62-1.281-3.62-3.46s1.57-3.46 3.62-3.46c1.121 0 2.146 0.641 2.594 1.313v4.292zM50.831 11.788h3.075v12.044h-3.075v-12.044zM96.764 11.467c-2.114 0-3.107 1.282-3.107 1.282v-6.759h-3.075v17.842h2.595c0.256 0 0.448-0.224 0.448-0.449v-0.544c0 0 0.993 1.313 3.107 1.313 3.492 0 6.214-2.69 6.214-6.342s-2.722-6.344-6.182-6.344zM96.251 21.237c-1.186 0-2.114-0.608-2.595-1.313v-4.292c0.481-0.641 1.505-1.313 2.595-1.313 2.050 0 3.619 1.281 3.619 3.46s-1.569 3.459-3.619 3.459zM88.98 16.689v7.175h-3.075v-6.823c0-1.986-0.641-2.787-2.369-2.787-0.929 0-1.89 0.481-2.499 1.185v8.392h-3.074v-12.044h2.434c0.256 0 0.449 0.224 0.449 0.449v0.513c0.897-0.929 2.082-1.282 3.267-1.282 1.346 0 2.467 0.385 3.364 1.154 1.089 0.897 1.506 2.050 1.506 4.068zM70.498 11.467c-2.114 0-3.107 1.282-3.107 1.282v-6.759h-3.075v17.842h2.594c0.256 0 0.449-0.224 0.449-0.449v-0.544c0 0 0.993 1.313 3.107 1.313 3.492 0 6.214-2.69 6.214-6.342 0.032-3.652-2.691-6.344-6.182-6.344zM69.985 21.237c-1.185 0-2.114-0.608-2.594-1.313v-4.292c0.481-0.641 1.505-1.313 2.594-1.313 2.050 0 3.62 1.281 3.62 3.46s-1.569 3.459-3.62 3.459zM61.657 11.467c0.929 0 1.409 0.161 1.409 0.161v2.85c0 0-2.563-0.865-4.164 0.961v8.424h-3.075v-12.076h2.595c0.256 0 0.448 0.224 0.448 0.449v0.513c0.577-0.673 1.827-1.282 2.787-1.282zM29.722 22.743c-0.16-0.384-0.32-0.801-0.48-1.153-0.257-0.576-0.513-1.121-0.737-1.634l-0.032-0.032c-2.21-4.805-4.58-9.673-7.079-14.478l-0.096-0.193c-0.263-0.498-0.519-1-0.768-1.506-0.321-0.577-0.641-1.185-1.153-1.762-1.025-1.281-2.498-1.986-4.068-1.986-1.602 0-3.043 0.705-4.1 1.922-0.481 0.576-0.833 1.185-1.153 1.762-0.25 0.505-0.506 1.007-0.768 1.506l-0.096 0.193c-2.466 4.804-4.869 9.673-7.079 14.478l-0.032 0.064c-0.224 0.513-0.481 1.058-0.737 1.634-0.16 0.353-0.32 0.737-0.48 1.153-0.417 1.185-0.545 2.306-0.384 3.46 0.352 2.402 1.954 4.42 4.164 5.317 0.833 0.353 1.698 0.513 2.595 0.513 0.256 0 0.576-0.032 0.833-0.064 1.057-0.128 2.146-0.48 3.203-1.089 1.313-0.737 2.562-1.794 3.972-3.331 1.409 1.538 2.691 2.594 3.972 3.331 1.058 0.609 2.146 0.961 3.203 1.089 0.256 0.033 0.577 0.064 0.833 0.064 0.897 0 1.794-0.16 2.594-0.513 2.242-0.898 3.812-2.947 4.164-5.317 0.254-1.121 0.126-2.242-0.29-3.427zM15.276 24.408c-1.73-2.178-2.851-4.228-3.235-5.957-0.16-0.737-0.192-1.378-0.096-1.954 0.064-0.513 0.256-0.961 0.513-1.346 0.609-0.864 1.634-1.409 2.819-1.409s2.242 0.513 2.819 1.409c0.256 0.384 0.448 0.833 0.513 1.346 0.096 0.577 0.064 1.249-0.096 1.954-0.386 1.697-1.507 3.747-3.236 5.957zM28.056 25.914c-0.224 1.666-1.345 3.107-2.915 3.748-0.769 0.32-1.602 0.416-2.434 0.32-0.801-0.096-1.602-0.353-2.434-0.833-1.153-0.641-2.306-1.634-3.652-3.107 2.114-2.594 3.395-4.965 3.876-7.079 0.224-0.993 0.257-1.89 0.16-2.723-0.128-0.801-0.416-1.538-0.865-2.178-0.994-1.442-2.659-2.274-4.517-2.274s-3.523 0.865-4.516 2.274c-0.448 0.641-0.737 1.377-0.865 2.178-0.128 0.833-0.096 1.762 0.16 2.723 0.48 2.114 1.794 4.516 3.875 7.111-1.313 1.474-2.498 2.467-3.652 3.107-0.833 0.481-1.633 0.737-2.434 0.833-0.865 0.096-1.698-0.032-2.434-0.32-1.569-0.641-2.691-2.082-2.914-3.748-0.096-0.801-0.032-1.601 0.288-2.498 0.096-0.321 0.256-0.641 0.416-1.025 0.224-0.513 0.48-1.058 0.737-1.602l0.032-0.064c2.21-4.773 4.58-9.642 7.047-14.382l0.096-0.193c0.257-0.48 0.513-0.993 0.769-1.473 0.256-0.513 0.544-0.993 0.897-1.41 0.673-0.768 1.569-1.185 2.563-1.185s1.89 0.417 2.563 1.185c0.353 0.418 0.641 0.898 0.897 1.41 0.257 0.481 0.513 0.993 0.769 1.473l0.096 0.193c2.429 4.76 4.768 9.566 7.015 14.414v0.032c0.257 0.513 0.481 1.089 0.737 1.602 0.16 0.384 0.32 0.704 0.416 1.024 0.256 0.832 0.352 1.633 0.223 2.466z"></path>
</symbol>
<symbol id="icon-american-airlines-logo" viewBox="0 0 123 32">
<path d="M61.461 14.385h-0.043l-1.285 3.627h2.598l-1.27-3.627zM63.762 20.876l-0.633-1.785h-3.357l-0.63 1.785h-1.439l3.013-7.935h1.6l2.967 7.935h-1.521zM75.94 12.618h1.403v1.329h-1.403v-1.329zM75.94 14.828h1.371v6.048h-1.374l0.004-6.048zM65.809 12.618h1.406v1.329h-1.406v-1.329zM65.809 14.828h1.374v6.048h-1.374v-6.048zM74.426 12.627h-1.37v8.248h1.37v-8.248zM70.057 17.928v2.948h-1.381v-4.491c0-0.434-0.047-1.257-0.064-1.552h1.109c0.118 0 0.157 0.049 0.157 0.165v0.752h0.043c0.107-0.264 0.497-1.047 1.635-1.047 0.383 0 0.666 0.125 0.712 0.143 0 0.259-0.043 0.832-0.043 0.984 0 0.098-0.054 0.13-0.1 0.13-0.050 0-0.072 0-0.093-0.045-0.086-0.045-0.286-0.094-0.565-0.094-0.734 0-1.417 0.528-1.417 2.084zM82.542 20.853v-3.905c0-0.747-0.34-1.199-0.973-1.199-0.845 0-1.403 0.899-1.403 2.107v2.997h-1.374v-4.442c0-0.487-0.046-1.203-0.068-1.601h1.102c0.125 0 0.161 0.049 0.161 0.161v0.756h0.043c0.165-0.286 0.587-1.047 1.854-1.047 1.299 0 2.030 0.89 2.030 1.892v4.281h-1.371zM86.342 17.208h2.541c0.054-0.975-0.462-1.521-1.231-1.521-0.809 0-1.274 0.586-1.31 1.521zM89.727 19.525c0.075 0 0.1 0.067 0.104 0.134 0.043 0.259 0.050 0.841 0.043 0.989-0.147 0.049-0.884 0.322-1.872 0.322-1.929 0-3.085-0.998-3.085-3.14 0-1.839 0.985-3.149 2.759-3.149 1.743 0 2.573 1.167 2.573 2.612 0 0.17 0 0.456-0.046 0.841h-3.879c0 1.029 0.662 1.771 1.875 1.771 0.67 0 1.202-0.242 1.414-0.345 0.043 0 0.065-0.045 0.114-0.045zM92.944 20.961c1.786 0 2.638-0.734 2.638-1.816 0-1.069-0.758-1.521-1.564-1.785-0.229-0.076-0.458-0.152-0.666-0.224-0.55-0.179-0.837-0.42-0.837-0.778 0-0.376 0.343-0.639 1.059-0.639 0.637 0 1.155 0.259 1.359 0.358 0.047 0 0.061 0.045 0.115 0.045 0.046 0 0.1-0.045 0.11-0.13 0-0.206 0.043-0.573 0.043-0.926-0.168-0.076-0.77-0.385-1.736-0.385-1.474 0-2.383 0.769-2.383 1.78 0 0.984 0.673 1.431 1.414 1.677 0.169 0.058 0.483 0.161 0.67 0.224 0.769 0.255 0.987 0.488 0.987 0.85 0 0.47-0.501 0.702-1.363 0.702-0.705 0-1.191-0.259-1.385-0.354-0.046 0-0.064-0.045-0.122-0.045-0.097 0-0.104 0.134-0.104 0.157 0 0.067-0.042 0.693-0.042 0.899 0.161 0.072 0.862 0.389 1.799 0.389zM12.065 14.354h-0.043l-1.288 3.628h2.594l-1.263-3.628zM14.366 20.844l-0.63-1.785h-3.364l-0.626 1.785h-1.439l3.013-7.94h1.596l2.966 7.94h-1.517zM36.785 12.587h1.403v1.328h-1.403v-1.328zM36.785 14.797h1.374v6.079h-1.374v-6.079zM33.84 17.896v2.948h-1.37v-4.491c0-0.434-0.050-1.257-0.068-1.557h1.106c0.118 0 0.158 0.054 0.158 0.17v0.752h0.043c0.107-0.264 0.497-1.047 1.635-1.047 0.383 0 0.669 0.125 0.712 0.143 0 0.259-0.043 0.832-0.043 0.984 0 0.098-0.054 0.13-0.104 0.13s-0.072 0-0.093-0.045c-0.089-0.045-0.286-0.098-0.565-0.098-0.73 0-1.417 0.532-1.417 2.089zM23.695 20.822v-3.869c0-0.698-0.29-1.235-1.002-1.235-0.798 0-1.263 0.872-1.263 2.102v3.001h-1.371v-3.883c0-0.631-0.265-1.221-1.002-1.221-0.809 0-1.267 0.872-1.267 2.147v2.956h-1.37v-4.406c0-0.568-0.050-1.369-0.068-1.642h1.095c0.125 0 0.165 0.045 0.172 0.17v0.752h0.043c0.086-0.174 0.537-1.047 1.8-1.047 1.17 0 1.617 0.841 1.728 1.1 0.107-0.228 0.633-1.1 1.814-1.1 1.227 0 2.068 0.662 2.068 1.986v4.187h-1.378zM27.495 17.176h2.541c0.054-0.975-0.458-1.521-1.231-1.521-0.809 0-1.27 0.586-1.31 1.521zM30.88 19.494c0.075 0 0.097 0.067 0.104 0.134 0.043 0.259 0.046 0.841 0.043 0.988-0.147 0.049-0.884 0.322-1.875 0.322-1.925 0-3.081-0.997-3.081-3.14 0-1.838 0.984-3.149 2.763-3.149 1.739 0 2.569 1.168 2.569 2.612 0 0.17 0 0.456-0.050 0.837h-3.872c0 1.033 0.658 1.776 1.868 1.776 0.673 0 1.206-0.242 1.421-0.344 0.043 0 0.061-0.045 0.114-0.045zM48.092 17.744h-0.233c-1.721 0-2.061 0.599-2.061 1.208 0 0.497 0.326 0.971 0.97 0.971 0.859 0 1.324-0.828 1.324-1.696v-0.483zM48.425 20.813c-0.111 0-0.204-0.045-0.218-0.197 0-0.197-0.043-0.582-0.043-0.582-0.082 0.112-0.583 0.895-1.839 0.895-1.202 0-1.893-0.93-1.893-1.946 0-1.414 1.37-2.12 3.407-2.12h0.268v-0.224c0-0.631-0.454-0.971-1.292-0.971-0.759 0-1.388 0.264-1.632 0.389 0 0-0.061 0.045-0.1 0.045-0.068 0-0.104-0.045-0.107-0.112 0-0.228-0.047-0.666-0.047-0.944 0.25-0.094 1.070-0.398 1.972-0.398 1.8 0 2.569 0.832 2.569 2.165v2.357c0 0.859 0.079 1.422 0.111 1.65l-1.156-0.009zM43.684 19.485c0.043 0 0.089 0 0.097 0.13 0.043 0.286 0.043 0.76 0.043 0.908-0.272 0.134-0.866 0.407-1.596 0.407-1.829 0-2.952-1.065-2.952-3.144 0-1.946 0.998-3.145 2.952-3.145 0.651 0 1.249 0.228 1.596 0.407 0 0.215-0.043 0.702-0.043 0.908 0 0.085-0.047 0.125-0.097 0.125-0.057 0-0.075 0-0.111-0.045-0.437-0.215-0.852-0.322-1.227-0.322-1.163 0-1.646 0.765-1.646 2.053 0 1.149 0.383 2.049 1.646 2.049 0.483 0 0.92-0.17 1.192-0.3 0.079-0.045 0.086-0.049 0.147-0.049zM54.408 20.795v-3.905c0-0.747-0.34-1.199-0.973-1.199-0.848 0-1.41 0.895-1.41 2.107v2.997h-1.37v-4.442c0-0.488-0.043-1.203-0.064-1.606h1.099c0.125 0 0.161 0.054 0.161 0.166v0.756h0.047c0.165-0.286 0.59-1.047 1.85-1.047 1.306 0 2.036 0.89 2.036 1.892v4.28h-1.374zM114.748 23.394l0.168 0.586 0.165-0.586h0.139l0.107 0.734h-0.107l-0.082-0.599-0.168 0.599h-0.122l-0.165-0.595-0.075 0.595h-0.104l0.108-0.734h0.136zM114.404 23.394v0.094h-0.218v0.64h-0.107v-0.64h-0.214v-0.094h0.54zM96.759 7.873l3.396 5.56c0.486 0.738 0.88 0.948 2.132 0.948h3.060c-2.827-3.529-4.166-5.336-4.602-5.739-0.39-0.38-0.78-0.769-1.732-0.769h-2.254zM106.185 14.672c-1.396 0-2.752 0.138-3.429 0.461-0.576 0.309-0.73 0.501-0.73 0.854 0 0.322 0.061 0.595 0.261 0.913l1.678 2.773c0 0-0.118-0.327-0.118-0.698 0-1.758 1.914-2.916 4.308-2.916 0.752 0 1.074 0.13 1.074 0.13-0.233-0.787-0.777-1.516-3.045-1.516zM107.072 16.514c-0.687 0.13-1.295 0.38-1.75 0.743-0.691 0.541-1.074 1.306-0.998 2.389 0 0.107 0.050 0.412 0.103 0.657 0.043 0.098 0.043 0.103 0.043 0.179l1.36 2.263c0.576 0.926 1.528 1.351 2.719 1.351h4.795l-5.618-6.812-0.654-0.769z"></path>
</symbol>
<symbol id="icon-expedia-logo" viewBox="0 0 114 32">
<path d="M54.385 25.032h-3.513c-0.022 0-0.022 0-0.033-0.011l-3.024-3.691-3.024 3.691c-0.011 0.011-0.022 0.011-0.033 0.011h-2.812c-0.022 0-0.033-0.011-0.044-0.022 0-0.011 0-0.033 0.011-0.044l4.458-5.469-4.402-5.414c-0.011-0.022-0.011-0.033-0.011-0.056 0.011-0.011 0.022-0.022 0.033-0.022h3.513c0.011 0 0.022 0.011 0.033 0.022l2.657 3.29 2.701-3.29c0.011-0.011 0.022-0.022 0.033-0.022h2.857c0.011 0 0.033 0.011 0.044 0.022 0.011 0.022 0 0.033-0.011 0.056l-4.169 5.013 4.78 5.869c0.011 0.011 0.011 0.033 0.011 0.044-0.022 0.022-0.033 0.022-0.056 0.022z"></path>
<path d="M73.382 15.939c-1.556 0-2.612 0.945-2.924 2.579h5.291v-0.111c0-1.301-0.967-2.468-2.368-2.468zM78.474 20.208c-0.011 0.011-0.022 0.022-0.033 0.022h-8.037c0.167 1.868 1.378 2.935 3.346 2.935 1.212 0 2.501-0.411 4.313-1.378 0.033-0.022 0.067 0.011 0.067 0.044v2.468c0 0.022-0.011 0.033-0.022 0.033-1.69 0.711-3.39 1.2-4.724 1.2-3.457 0-5.969-2.523-5.969-5.992s2.512-5.992 5.969-5.992c3.157 0 5.18 2.123 5.18 5.047 0 0.478-0.078 1.578-0.089 1.612z"></path>
<path d="M94.792 11.715c-0.99 0-1.79-0.789-1.79-1.756 0-1 0.8-1.812 1.79-1.812s1.79 0.811 1.79 1.812c0 0.967-0.801 1.756-1.79 1.756zM93.346 25.032c-0.033 0-0.044-0.011-0.044-0.044v-10.949c0-0.022 0.011-0.044 0.034-0.044h2.901c0.022 0 0.034 0.022 0.034 0.044v10.949c0 0.033-0.022 0.044-0.045 0.044h-2.879z"></path>
<path d="M59.699 23.387c-0.522 0-1.056-0.078-1.679-0.233l0.011-7.025c0.723-0.233 1.345-0.333 1.968-0.333 2.012 0 3.357 1.478 3.357 3.69 0 2.368-1.434 3.902-3.657 3.902zM60.488 13.549c-0.823 0-1.645 0.144-2.512 0.445h-2.89c-0.022 0-0.044 0.022-0.044 0.044v17.952c0.867-0.122 1.934-0.434 2.979-1.167v-5.458c0.711 0.1 1.301 0.167 1.868 0.167 3.957 0 6.514-2.368 6.514-6.036 0-3.502-2.434-5.947-5.914-5.947z"></path>
<path d="M88.066 22.475c-0.9 0.478-1.712 0.7-2.467 0.7-1.79 0-2.868-1.267-2.868-3.39 0-2.446 1.367-4.035 3.49-4.035 0.589 0 1.156 0.144 1.845 0.456v6.269zM88.066 8.202v5.725c-0.845-0.245-1.59-0.356-2.346-0.356-3.446 0-6.036 2.59-6.036 6.036 0 3.424 2.29 5.914 5.447 5.914 1.090 0 2.112-0.278 3.313-0.889v0.989c0.789-0.156 1.701-0.467 2.601-1.112v-17.485c-0.878 0.122-1.923 0.422-2.979 1.178z"></path>
<path d="M106.33 22.453c-0.878 0.5-1.623 0.745-2.29 0.745-1.923 0-3.069-1.267-3.069-3.39 0-2.412 1.357-4.035 3.369-4.035 0.534 0 1.189 0.211 1.99 0.634v6.047zM109.31 13.86c0-0.067-0.056-0.122-0.122-0.122h-2.346c-0.066 0-0.134 0.056-0.134 0.122v0.4h-0.055c-1.078-0.478-2.012-0.689-2.913-0.689-3.246 0-5.791 2.69-5.791 6.136 0 3.479 2.279 5.814 5.669 5.814 0.901 0 2.068-0.067 3.158-1.312v1.412c0.766-0.167 1.678-0.489 2.534-1.112v-10.649z"></path>
<path d="M33.921 22.297h7.281c-0.111 0.811-0.389 1.767-1.012 2.734h-7.57c-0.923 0-1.69-0.722-1.779-1.623 0-0.011-0.011-0.022-0.011-0.044v-14.362c0-0.011 0.011-0.022 0.011-0.033 0.089-0.912 0.856-1.634 1.779-1.634h8.57c-0.111 0.811-0.389 1.79-1.023 2.757h-6.247v3.913h6.192c0.022 0 0.044 0.022 0.044 0.044v2.712c0 0.022-0.022 0.044-0.044 0.044h-6.192v5.491z"></path>
<path d="M24.805 25.265c-0.723 0-1.167-0.567-1.167-1.256 0-0.734 0.511-1.256 1.167-1.256 0.645 0 1.156 0.511 1.156 1.256s-0.511 1.256-1.156 1.256zM24.805 22.62c-0.734 0-1.367 0.556-1.367 1.39 0 0.789 0.567 1.39 1.367 1.39 0.723 0 1.356-0.556 1.356-1.39s-0.622-1.39-1.356-1.39z"></path>
<path d="M24.483 23.898v-0.511h0.345c0.178 0 0.378 0.022 0.378 0.233 0 0.256-0.189 0.267-0.4 0.267-0.011 0.011-0.322 0.011-0.322 0.011zM25.45 23.653c0-0.333-0.2-0.478-0.6-0.478h-0.622v1.645h0.267v-0.7h0.256l0.422 0.7h0.311l-0.456-0.723c0.245-0.022 0.422-0.144 0.422-0.445z"></path>
<path d="M111.71 15.817c-0.722 0-1.167-0.567-1.167-1.256 0-0.734 0.511-1.256 1.167-1.256 0.645 0 1.156 0.511 1.156 1.256s-0.511 1.256-1.156 1.256zM111.71 13.182c-0.734 0-1.367 0.556-1.367 1.39 0 0.789 0.567 1.39 1.367 1.39 0.722 0 1.356-0.556 1.356-1.39 0-0.845-0.634-1.39-1.356-1.39z"></path>
<path d="M111.377 14.449v-0.5h0.345c0.178 0 0.378 0.022 0.378 0.233 0 0.256-0.189 0.267-0.4 0.267h-0.322zM112.355 14.216c0-0.334-0.2-0.478-0.6-0.478h-0.622v1.645h0.266v-0.7h0.256l0.422 0.7h0.311l-0.456-0.722c0.234-0.022 0.422-0.145 0.422-0.445z"></path>
<path d="M15.412 10.081l-0.522-1.49-4.491-5.992 0.8-0.2 7.726 6.681 4.546-1.301c0.534-0.133 1.145-0.167 1.601-0.167-1.423-3.079-4.046-5.614-7.492-6.836-6.814-2.434-14.317 1.134-16.741 7.959-0.756 2.112-0.923 4.291-0.611 6.358l10.883-3.78 4.302-1.234z"></path>
<path d="M25.561 8.791c-0.4 0.256-0.989 0.6-1.567 0.789l-4.558 1.301-3.035 9.76-0.789 0.256 0.645-7.448-0.356-1.545-4.269 1.223-11.294 2.634c0.9 4.335 3.968 8.126 8.448 9.715 6.825 2.434 14.317-1.134 16.752-7.959 1.045-2.924 0.978-5.992 0.022-8.726z"></path>
<path d="M15.89 11.893l0.356 1.545-0.645 7.448 0.789-0.256 3.035-9.76 4.558-1.301c0.578-0.189 1.167-0.522 1.567-0.789-0.145-0.4-0.3-0.789-0.478-1.178-0.467 0-1.067 0.022-1.601 0.167l-4.546 1.301-7.726-6.681-0.8 0.2 4.48 5.992 0.522 1.49-4.302 1.234-10.883 3.779c0.033 0.222 0.078 0.456 0.122 0.678l11.283-2.657 4.269-1.212z"></path>
</symbol>
<symbol id="icon-skyscanner-logo" viewBox="0 0 178 32">
<path d="M19.896 26.245c0.409 0 0.799-0.097 1.17-0.312l4.269-2.456c0.858-0.487 1.852-0.702 2.846-0.585 5.186 0.604 8.812 1.579 9.884 1.891 0.214 0.058 0.468-0.020 0.604-0.195 0.175-0.214 0.39-0.565 0.565-1.072 0.156-0.487 0.175-0.897 0.156-1.189-0.020-0.234-0.176-0.448-0.41-0.507-1.677-0.487-9.104-2.495-19.085-2.495s-17.409 2.008-19.085 2.495c-0.234 0.058-0.39 0.273-0.409 0.507-0.020 0.273 0 0.682 0.156 1.189s0.39 0.858 0.565 1.072c0.136 0.176 0.39 0.253 0.604 0.195 1.072-0.312 4.718-1.287 9.884-1.891 0.994-0.117 1.988 0.098 2.846 0.585l4.269 2.456c0.37 0.215 0.78 0.312 1.17 0.312zM12.78 12.423c0.234 0.409 0.604 0.682 1.033 0.799s0.877 0.059 1.287-0.175c0.409-0.234 0.682-0.604 0.799-1.033s0.059-0.877-0.175-1.287l-3.84-6.648c-0.117-0.214-0.37-0.292-0.604-0.273-0.312 0.020-0.741 0.175-1.248 0.468s-0.858 0.585-1.033 0.838c-0.137 0.195-0.176 0.448-0.059 0.663l3.841 6.648zM9.271 17.18c0.409 0.234 0.877 0.273 1.287 0.175 0.429-0.117 0.799-0.39 1.033-0.799s0.273-0.877 0.176-1.287c-0.098-0.409-0.39-0.799-0.799-1.033l-6.648-3.841c-0.215-0.117-0.468-0.078-0.663 0.059-0.253 0.175-0.546 0.526-0.838 1.033s-0.448 0.936-0.468 1.248c-0.020 0.253 0.078 0.487 0.273 0.604l6.648 3.84zM21.592 10.064c0 0.468-0.195 0.897-0.487 1.209-0.312 0.312-0.721 0.487-1.209 0.487-0.468 0-0.897-0.195-1.209-0.487-0.312-0.312-0.487-0.721-0.487-1.209v-7.662c0-0.253 0.156-0.448 0.39-0.546 0.273-0.136 0.721-0.214 1.306-0.214s1.033 0.078 1.306 0.214c0.215 0.117 0.39 0.292 0.39 0.546v7.662zM27.011 12.423c-0.234 0.409-0.604 0.682-1.033 0.799s-0.877 0.059-1.287-0.175c-0.409-0.234-0.682-0.604-0.799-1.033s-0.058-0.877 0.175-1.287l3.841-6.648c0.117-0.214 0.37-0.292 0.604-0.273 0.312 0.020 0.741 0.175 1.248 0.468s0.858 0.585 1.033 0.838c0.136 0.195 0.175 0.448 0.058 0.663l-3.841 6.648zM30.52 17.18c-0.409 0.234-0.877 0.273-1.287 0.175-0.429-0.117-0.799-0.39-1.033-0.799s-0.273-0.877-0.176-1.287c0.117-0.429 0.39-0.799 0.799-1.033l6.648-3.841c0.214-0.117 0.468-0.078 0.663 0.059 0.254 0.175 0.546 0.526 0.838 1.033s0.448 0.936 0.468 1.248c0.020 0.253-0.078 0.487-0.273 0.604l-6.648 3.84z"></path>
<path d="M72.922 11.897h3.197c0.117 0 0.215 0.078 0.273 0.175l3.178 8.149 3.080-8.149c0.039-0.117 0.156-0.175 0.273-0.175h3.139c0.214 0 0.351 0.214 0.253 0.39l-7.798 17.896c-0.039 0.098-0.156 0.175-0.254 0.175h-2.768c-0.195 0-0.351-0.214-0.253-0.39l2.671-6.258-5.225-11.424c-0.117-0.176 0.020-0.39 0.234-0.39zM120.119 13.71v-1.521c0-0.156 0.136-0.292 0.293-0.292h2.826c0.157 0 0.293 0.136 0.293 0.292v12.145c0 0.156-0.136 0.292-0.293 0.292h-2.826c-0.157 0-0.293-0.136-0.293-0.292v-1.599c-0.605 0.936-1.93 2.164-4.094 2.164-4.133 0-6.278-3.158-6.278-6.687 0-4.601 3.197-6.57 6.179-6.57 1.969-0.020 3.334 0.916 4.192 2.066v0zM113.159 18.232c0 2.183 1.345 3.86 3.51 3.86 2.163 0 3.547-1.462 3.547-3.704s-1.345-3.957-3.646-3.957c-2.163 0-3.411 1.677-3.411 3.802zM126.085 24.334v-12.145c0-0.156 0.136-0.292 0.291-0.292h2.827c0.155 0 0.293 0.136 0.293 0.292v1.657c0.663-1.15 1.91-2.203 4.035-2.203 2.183 0 4.619 1.072 4.619 6.004v6.687c0 0.156-0.136 0.292-0.291 0.292h-2.827c-0.155 0-0.293-0.136-0.293-0.292v-6.628c0-1.189-0.291-3.236-2.398-3.236-2.105 0-2.846 1.852-2.846 3.568v6.297c0 0.156-0.137 0.292-0.293 0.292h-2.827c-0.175-0.020-0.291-0.136-0.291-0.292v0zM140.569 24.334v-12.145c0-0.156 0.136-0.292 0.293-0.292h2.826c0.155 0 0.293 0.136 0.293 0.292v1.657c0.663-1.15 1.911-2.203 4.035-2.203 2.183 0 4.621 1.072 4.621 6.004v6.687c0 0.156-0.137 0.292-0.293 0.292h-2.827c-0.155 0-0.293-0.136-0.293-0.292v-6.628c0-1.189-0.291-3.236-2.398-3.236-2.105 0-2.846 1.852-2.846 3.568v6.297c0 0.156-0.137 0.292-0.293 0.292h-2.827c-0.155-0.020-0.291-0.136-0.291-0.292zM170.259 11.897h2.749c0.157 0 0.293 0.136 0.293 0.292v2.515c0.546-2.495 2.69-3.353 4.25-2.983 0.136 0.020 0.214 0.136 0.214 0.273v2.768c0 0.175-0.155 0.312-0.351 0.273-2.885-0.565-4.055 0.994-4.055 3.178v6.122c0 0.156-0.136 0.292-0.293 0.292h-2.826c-0.157 0-0.293-0.136-0.293-0.292v-12.145c0.019-0.156 0.157-0.292 0.312-0.292zM54.187 14.665c-0.877-0.292-1.345-0.468-2.047-0.702-0.721-0.253-1.95-0.955-1.95-2.086s0.78-1.852 2.359-1.852c1.443 0 2.242 0.702 2.768 1.832 0.078 0.156 0.254 0.214 0.409 0.137l2.32-1.345c0.117-0.078 0.175-0.234 0.117-0.37-0.702-1.54-2.339-3.392-5.575-3.392-3.607 0-5.868 2.144-5.868 4.971 0 2.807 1.852 4.269 4.367 5.127 0.916 0.312 1.287 0.448 2.066 0.702 1.482 0.507 2.164 1.17 2.164 2.086s-0.585 2.008-2.885 2.008c-2.105 0-2.846-1.111-3.275-2.164-0.058-0.156-0.253-0.234-0.409-0.136l-2.437 1.404c-0.117 0.078-0.175 0.215-0.117 0.351 0.936 2.3 3.489 3.665 6.355 3.665 3.373 0 6.219-1.715 6.219-5.186s-3.704-4.757-4.581-5.049v-0zM72.805 21.293c-0.078-0.136-0.273-0.195-0.409-0.098-1.092 0.799-2.378 0.819-3.353-0.682-0.819-1.267-1.813-2.827-1.813-2.827l4.289-5.322c0.156-0.195 0.020-0.468-0.214-0.468h-3.353c-0.097 0-0.176 0.039-0.234 0.117l-3.704 5.088v-10.235c0-0.156-0.136-0.292-0.292-0.292h-2.827c-0.156 0-0.292 0.136-0.292 0.292v17.467c0 0.156 0.136 0.292 0.292 0.292h2.846c0.156 0 0.292-0.136 0.292-0.292v-5.673c0 0 1.891 2.983 2.612 4.094 0.975 1.521 2.339 2.144 3.821 2.144 1.404 0 2.3-0.37 3.373-1.423 0.097-0.098 0.117-0.234 0.058-0.351l-1.092-1.832zM93.099 17.277c-0.897-0.331-1.209-0.448-1.891-0.702s-1.287-0.624-1.287-1.17c0-0.546 0.507-1.15 1.54-1.15 0.897 0 1.443 0.351 1.754 0.975 0.078 0.156 0.253 0.195 0.39 0.117l1.989-1.15c0.136-0.078 0.176-0.253 0.097-0.39-0.546-0.955-1.618-2.164-4.211-2.164-3.177 0-4.815 1.832-4.815 3.86s1.657 2.983 3.177 3.587c1.716 0.702 1.833 0.741 2.047 0.819 0.526 0.214 1.17 0.546 1.17 1.15s-0.702 1.15-1.774 1.15c-0.994 0-2.125-0.409-2.593-1.56-0.058-0.156-0.254-0.234-0.409-0.136l-2.008 1.15c-0.117 0.078-0.175 0.214-0.117 0.351 0.585 1.521 2.32 2.866 5.127 2.866 3.041 0 5.069-1.618 5.069-3.899s-1.56-3.080-3.256-3.704zM104.523 14.665c1.267 0 2.203 0.39 3.080 1.014 0.136 0.098 0.331 0.059 0.409-0.078l1.17-2.027c0.078-0.136 0.039-0.292-0.097-0.37-1.209-0.819-2.71-1.579-4.737-1.579-2.008 0-3.86 0.546-5.186 1.891-1.326 1.326-1.93 2.905-1.93 4.776 0 2.261 0.936 3.704 1.95 4.718s2.846 1.871 5.186 1.871c2.106 0 3.665-0.877 4.737-1.579 0.117-0.078 0.156-0.253 0.078-0.37l-1.15-2.008c-0.078-0.137-0.273-0.195-0.409-0.098-0.76 0.546-1.852 1.014-3.080 1.014-1.384 0-3.899-0.78-3.899-3.587s2.495-3.587 3.879-3.587zM161.877 22.073c-1.13 0-2.202-0.273-2.983-0.897-0.779-0.624-1.15-1.267-1.15-2.028h10.098c0.155 0 0.293-0.136 0.293-0.292-0.058-3.002-1.033-4.406-1.969-5.361-0.975-0.975-2.632-1.872-4.816-1.872-2.183 0-3.859 0.799-5.009 1.93-1.131 1.131-1.989 2.573-1.989 4.757s0.877 3.626 1.95 4.698c1.072 1.072 2.826 1.871 5.341 1.871 2.378 0 4.386-0.838 5.83-2.495 0.117-0.136 0.078-0.351-0.078-0.429l-2.008-1.17c-0.098-0.058-0.234-0.058-0.331 0.039-0.994 0.936-2.262 1.248-3.178 1.248zM161.33 14.353c1.618 0 3.101 0.975 3.334 2.729h-6.803c0.448-1.891 1.853-2.729 3.47-2.729z"></path>
</symbol>
<symbol id="icon-traveloka-logo" viewBox="0 0 145 32">
<path d="M115.605 24.32c1.441-0.426 3.207-0.446 4.367-0.446h0.345v0.159c0 1.315-0.457 2.722-1.295 3.742-0.698 0.846-1.666 1.42-2.859 1.42-0.921 0-1.619-0.267-2.101-0.675-0.535-0.452-0.806-1.082-0.806-1.698 0-1.389 1.048-2.117 2.349-2.501zM111.69 30.586c1.090 0.937 2.601 1.414 4.105 1.414 1.285 0 2.433-0.391 3.379-1.016 0.463-0.306 0.875-0.669 1.233-1.071v1.722h3.059v-10.304c0-2.049-0.56-3.635-1.626-4.725-1.077-1.099-2.642-1.667-4.642-1.667-1.069 0-2.174 0.184-3.175 0.504-1.020 0.325-1.935 0.793-2.599 1.354l-0.349 0.295 1.483 2.473 0.474-0.347c0.588-0.428 1.25-0.769 1.95-1.003 0.673-0.225 1.383-0.347 2.093-0.347 1.013 0 1.878 0.236 2.443 0.826 0.486 0.507 0.778 1.3 0.798 2.462h-0.375c-1.502 0-3.897 0.079-5.942 0.81-2.163 0.771-3.924 2.243-3.924 5.037 0 1.544 0.638 2.742 1.616 3.583zM99.092 31.636h-2.611v-22.396h3.15v11.888h1.669l4.572-5.822h3.884l-0.704 0.876-5.107 6.357 6.259 9.097h-3.808l-0.16-0.24-4.93-7.371h-1.674v7.611h-0.538zM81.194 19.466c-0.964 0.985-1.56 2.359-1.56 3.928 0 1.625 0.592 3.028 1.551 4.026 0.977 1.018 2.34 1.621 3.854 1.621 1.516 0 2.89-0.605 3.875-1.625 0.964-1 1.56-2.399 1.56-4.022 0-1.566-0.599-2.94-1.569-3.924-0.983-1-2.353-1.601-3.865-1.601-1.508 0-2.87 0.601-3.845 1.597zM78.909 29.506c-1.54-1.538-2.486-3.675-2.486-6.112 0-2.394 0.948-4.494 2.49-6.005 1.56-1.529 3.725-2.449 6.126-2.449 2.403 0 4.577 0.922 6.145 2.451 1.547 1.512 2.503 3.611 2.503 6.003 0 2.434-0.954 4.57-2.497 6.108-1.568 1.56-3.746 2.499-6.15 2.499-2.403 0-4.57-0.937-6.13-2.495zM71.49 31.042c-0.856-0.607-1.529-1.676-1.529-3.554v-18.248h3.152v17.793c0 0.834 0.168 1.285 0.406 1.518 0.208 0.201 0.509 0.249 0.791 0.249 0.072 0 0.16 0 0.199-0.002 0.063-0.004 0.133-0.009 0.203-0.020l0.625-0.103v2.94l-0.452 0.074c-0.098 0.017-0.214 0.033-0.363 0.046-0.153 0.015-0.317 0.024-0.485 0.024-0.703 0-1.7-0.114-2.547-0.716zM56.987 18.876c-0.671 0.603-1.188 1.44-1.462 2.493h8.389c-0.129-1.095-0.514-1.936-1.064-2.532-0.692-0.75-1.66-1.119-2.715-1.119-1.191 0-2.3 0.397-3.148 1.158zM54.497 29.578c-1.516-1.503-2.429-3.615-2.429-6.091 0-2.565 0.861-4.642 2.252-6.11 1.492-1.575 3.587-2.436 5.876-2.436 2.176 0 3.854 0.799 5.020 2.080 1.276 1.403 1.922 3.373 1.922 5.494 0 0.168-0.009 0.356-0.020 0.55-0.011 0.148-0.028 0.339-0.044 0.531l-0.046 0.491h-11.687c0.14 1.451 0.69 2.606 1.503 3.43 0.985 1 2.366 1.525 3.873 1.525 0.765 0 1.544-0.159 2.276-0.443 0.749-0.293 1.446-0.716 2.027-1.238l0.485-0.435 0.336 0.559 1.173 1.955-0.326 0.297c-0.763 0.693-1.734 1.26-2.777 1.651-1.053 0.393-2.182 0.612-3.255 0.612-2.451 0.002-4.612-0.891-6.156-2.421zM44.987 31.636h-2.622l-0.135-0.345-6.198-15.986h3.382l0.133 0.349 4.238 11.196c0.020 0.053 0.039 0.111 0.059 0.168 0.019-0.057 0.039-0.114 0.059-0.168l0.002-0.006 4.369-11.539h3.349l-6.267 16.33h-0.369zM26.688 24.32c-1.302 0.384-2.348 1.112-2.348 2.501 0 0.616 0.271 1.247 0.806 1.698 0.479 0.406 1.178 0.675 2.099 0.675 1.195 0 2.163-0.573 2.86-1.42 0.839-1.020 1.295-2.427 1.295-3.742v-0.159h-0.345c-1.158 0-2.925 0.020-4.367 0.446zM22.775 30.586c-0.977-0.841-1.616-2.040-1.616-3.583 0-2.794 1.761-4.266 3.924-5.037 2.045-0.73 4.441-0.81 5.942-0.81h0.374c-0.018-1.162-0.312-1.955-0.799-2.462-0.566-0.59-1.429-0.826-2.442-0.826-0.712 0-1.42 0.122-2.093 0.347-0.699 0.234-1.363 0.575-1.949 1.003l-0.476 0.347-0.301-0.505-1.18-1.968 0.349-0.295c0.664-0.563 1.579-1.029 2.599-1.356 1.001-0.317 2.106-0.502 3.174-0.502 2.001 0 3.567 0.566 4.642 1.667 1.068 1.090 1.628 2.676 1.628 4.725v10.304h-3.060v-1.722c-0.358 0.402-0.773 0.765-1.234 1.071-0.948 0.625-2.097 1.014-3.379 1.014-1.505 0.002-3.015-0.476-4.105-1.413zM14.382 31.636h-2.611v-16.33h3.12v2.211c0.303-0.417 0.646-0.793 1.025-1.118 0.907-0.773 2.018-1.247 3.283-1.247 0.155 0 0.323 0.009 0.492 0.030 0.159 0.017 0.315 0.042 0.459 0.079l0.411 0.101v3.198l-0.708-0.234c-0.007-0.002-0.077-0.009-0.181-0.017-0.124-0.009-0.275-0.017-0.413-0.017-1.331 0-2.322 0.668-3.012 1.643h-0.002c-0.913 1.291-1.324 3.109-1.324 4.701v6.999h-0.54zM4.665 30.736c-1.248-0.87-2.252-2.427-2.252-5.188v-7.316h-2.012v-2.807h2.042v-4.336h3.12v4.336h3.873v2.807h-3.873v7.102c0 1.284 0.315 2.099 0.758 2.613 0.638 0.74 1.573 0.881 2.18 0.881 0.103 0 0.208 0 0.291-0.006h0.002c0.092-0.006 0.188-0.018 0.291-0.041l0.655-0.144v2.975l-0.452 0.074c-0.118 0.020-0.275 0.039-0.459 0.052-0.157 0.011-0.33 0.018-0.513 0.018-0.957 0-2.414-0.16-3.652-1.022z"></path>
<path d="M135.402 16.898c0.018-0.011 0.037-0.022 0.055-0.033-0.822-2.456 2.598-6.608 8.939-13.551-5.127 0.629-9.094 1.931-11.898 3.904 0.272 4.024 1.241 7.251 2.904 9.68z"></path>
<path d="M135.402 16.899c0.018-0.011 0.037-0.022 0.055-0.033-0.027-0.083-0.049-0.168-0.067-0.254-0.801-3.043-1.126-6.558-0.974-10.545-0.69 0.356-1.33 0.74-1.918 1.153 0.272 4.024 1.241 7.251 2.904 9.68z"></path>
<path d="M137.514 20.421c1.353 0.693 2.477 1.051 3.471 0.88-6.683-2.621-9.457-9.721-8.321-21.302-2.401 0.472-4.349 1.569-5.706 3.399-1.182 1.595-0.802 3.62 0.166 6.326 0.131 0.361 0.286 2.316-0.521 3.043-0.299 0.266-0.777 0.055-1.19-0.214-1.421-0.808-2.602-0.8-3.543 0.024-2.593-0.437-4.471-0.673-5.634-0.714 1.659 0.522 3.578 1.060 5.73 1.687 0.92 0.267 1.707 0.9 2.329 1.855 1.272 1.955 4.878 3.015 8.369 3.519 1.309 0.188 3.122 0.612 4.85 1.497z"></path>
</symbol>
<symbol id="icon-calendar" viewBox="0 0 32 32">
<path d="M22.333 4.747v-2.080c0-0.547-0.453-1-1-1s-1 0.453-1 1v2h-8.667v-2c0-0.547-0.453-1-1-1s-1 0.453-1 1v2.080c-3.6 0.333-5.347 2.48-5.613 5.667-0.027 0.387 0.293 0.707 0.667 0.707h22.56c0.387 0 0.707-0.333 0.667-0.707-0.267-3.187-2.013-5.333-5.613-5.667z"></path>
<path d="M26.667 13.12h-21.333c-0.733 0-1.333 0.6-1.333 1.333v8.213c0 4 2 6.667 6.667 6.667h10.667c4.667 0 6.667-2.667 6.667-6.667v-8.213c0-0.733-0.6-1.333-1.333-1.333zM12.28 24.28c-0.133 0.12-0.28 0.213-0.44 0.28s-0.333 0.107-0.507 0.107c-0.173 0-0.347-0.040-0.507-0.107s-0.307-0.16-0.44-0.28c-0.24-0.253-0.387-0.6-0.387-0.947s0.147-0.693 0.387-0.947c0.133-0.12 0.28-0.213 0.44-0.28 0.32-0.133 0.693-0.133 1.013 0 0.16 0.067 0.307 0.16 0.44 0.28 0.24 0.253 0.387 0.6 0.387 0.947s-0.147 0.693-0.387 0.947zM12.56 19.173c-0.067 0.16-0.16 0.307-0.28 0.44-0.133 0.12-0.28 0.213-0.44 0.28s-0.333 0.107-0.507 0.107c-0.173 0-0.347-0.040-0.507-0.107s-0.307-0.16-0.44-0.28c-0.12-0.133-0.213-0.28-0.28-0.44s-0.107-0.333-0.107-0.507c0-0.173 0.040-0.347 0.107-0.507s0.16-0.307 0.28-0.44c0.133-0.12 0.28-0.213 0.44-0.28 0.32-0.133 0.693-0.133 1.013 0 0.16 0.067 0.307 0.16 0.44 0.28 0.12 0.133 0.213 0.28 0.28 0.44s0.107 0.333 0.107 0.507c0 0.173-0.040 0.347-0.107 0.507zM16.947 19.613c-0.133 0.12-0.28 0.213-0.44 0.28s-0.333 0.107-0.507 0.107c-0.173 0-0.347-0.040-0.507-0.107s-0.307-0.16-0.44-0.28c-0.24-0.253-0.387-0.6-0.387-0.947s0.147-0.693 0.387-0.947c0.133-0.12 0.28-0.213 0.44-0.28 0.32-0.147 0.693-0.147 1.013 0 0.16 0.067 0.307 0.16 0.44 0.28 0.24 0.253 0.387 0.6 0.387 0.947s-0.147 0.693-0.387 0.947z"></path>
</symbol>
<symbol id="icon-map" viewBox="0 0 32 32">
<path d="M10.173 4.76c0.239-0.13 0.493 0.070 0.493 0.343v18.074c0 0.298-0.203 0.549-0.466 0.688-0.009 0.005-0.018 0.010-0.027 0.015l-3.133 1.787c-2.187 1.253-3.987 0.213-3.987-2.32v-12.973c0-0.84 0.6-1.88 1.347-2.307l5.773-3.307z"></path>
<path d="M19.629 8.136c0.227 0.112 0.371 0.344 0.371 0.597v17.538c0 0.491-0.513 0.814-0.956 0.601l-5.667-2.73c-0.231-0.111-0.377-0.345-0.377-0.601v-17.614c0-0.494 0.519-0.817 0.963-0.597l5.667 2.806z"></path>
<path d="M29.333 8.653v12.973c0 0.84-0.6 1.88-1.347 2.307l-4.655 2.668c-0.444 0.255-0.998-0.066-0.998-0.578v-17.582c0-0.239 0.128-0.46 0.336-0.579l2.677-1.528c2.187-1.253 3.987-0.213 3.987 2.32z"></path>
</symbol>
<symbol id="icon-scroll-down" viewBox="0 0 18 32">
<path stroke-linejoin="miter" stroke-linecap="butt" stroke-miterlimit="4" stroke-width="2.0870" d="M9.043 1.043c4.418 0 8 3.582 8 8v13.913c0 4.418-3.582 8-8 8s-8-3.582-8-8v-13.913c0-4.418 3.582-8 8-8z"></path>
<path d="M13.217 22.957c0 2.305-1.869 4.174-4.174 4.174s-4.174-1.869-4.174-4.174c0-2.305 1.869-4.174 4.174-4.174s4.174 1.869 4.174 4.174z"></path>
</symbol>
<symbol id="icon-search" viewBox="0 0 32 32">
<path d="M15.333 29c-7.533 0-13.667-6.133-13.667-13.667s6.133-13.667 13.667-13.667 13.667 6.133 13.667 13.667c0 7.533-6.133 13.667-13.667 13.667zM15.333 3.667c-6.44 0-11.667 5.24-11.667 11.667s5.227 11.667 11.667 11.667 11.667-5.24 11.667-11.667c0-6.427-5.227-11.667-11.667-11.667z"></path>
<path d="M29.333 30.333c-0.253 0-0.507-0.093-0.707-0.293l-2.667-2.667c-0.387-0.387-0.387-1.027 0-1.413s1.027-0.387 1.413 0l2.667 2.667c0.387 0.387 0.387 1.027 0 1.413-0.2 0.2-0.453 0.293-0.707 0.293z"></path>
</symbol>
<symbol id="icon-underline" viewBox="0 0 357 32">
<path d="M356.617 10.177c-1.456-3.772-13.965-5.361-51.557-6.684-35.076-1.257-75.911-4.897-147.256-2.912-54.535 1.522-122.438 7.611-122.438 10.986 0 2.449 2.647 2.515 27.929 0.331 23.362-1.985 35.341-2.449 49.968-2.978-58.638 5.162-71.146 8.537-102.385 11.78-19.59 2.052-8.14 7.942-0.993 7.346 0.066 0 91.2-7.413 99.803-7.015 0.794 0.066-7.876 1.257-19.325 2.647-31.966 3.971-25.811 10.589-1.853 7.545 80.611-10.258 156.456-13.435 214.895-9.001 18.465 1.39 20.517 1.39 20.517-0.331 0-3.044-5.031-5.361-12.905-5.824-12.311-0.794-59.697-3.044-81.14-3.706-1.655-0.066-0.861-1.323 0.595-1.456 8.737-0.86 78.096-0.199 105.364 0.728 20.053 0.662 21.509 0.596 20.781-1.456z"></path>
</symbol>
<symbol id="icon-Favicon" viewBox="0 0 32 32">
<path d="M20.445 9.348c-1.316-0.879-2.862-1.348-4.445-1.348v-8c3.164 0 6.258 0.938 8.889 2.696s4.682 4.257 5.893 7.181c1.211 2.924 1.528 6.141 0.91 9.244s-2.141 5.955-4.379 8.192c-2.238 2.238-5.089 3.762-8.192 4.379s-6.321 0.3-9.244-0.91c-2.924-1.211-5.422-3.262-7.181-5.893s-2.696-5.725-2.696-8.889h8c0 1.582 0.469 3.129 1.348 4.445s2.128 2.341 3.59 2.946c1.462 0.606 3.070 0.764 4.622 0.455s2.977-1.071 4.096-2.189c1.119-1.119 1.881-2.544 2.189-4.096s0.15-3.16-0.455-4.622c-0.606-1.462-1.631-2.711-2.946-3.59z"></path>
<path d="M8 0c0 1.051-0.207 2.091-0.609 3.061s-0.991 1.853-1.734 2.595c-0.743 0.743-1.625 1.332-2.595 1.734s-2.011 0.609-3.061 0.609v8c2.101 0 4.182-0.414 6.123-1.218s3.705-1.983 5.191-3.468c1.486-1.486 2.664-3.25 3.468-5.191s1.218-4.022 1.218-6.123h-8z"></path>
</symbol>
</defs>
</svg>
